<?xml version="1.0" encoding="UTF-8" standalone="no"?>
<!-- Created with Inkscape (http://www.inkscape.org/) -->

<svg
   width="5.4659615mm"
   height="5.4659619mm"
   viewBox="0 0 5.4659615 5.4659619"
   version="1.1"
   id="svg1"
   xml:space="preserve"
   inkscape:version="1.3.2 (091e20e, 2023-11-25, custom)"
   sodipodi:docname="editar_light.svg"
   xmlns:inkscape="http://www.inkscape.org/namespaces/inkscape"
   xmlns:sodipodi="http://sodipodi.sourceforge.net/DTD/sodipodi-0.dtd"
   xmlns="http://www.w3.org/2000/svg"
   xmlns:svg="http://www.w3.org/2000/svg"><sodipodi:namedview
     id="namedview1"
     pagecolor="#ffffff"
     bordercolor="#000000"
     borderopacity="0.25"
     inkscape:showpageshadow="2"
     inkscape:pageopacity="0.0"
     inkscape:pagecheckerboard="0"
     inkscape:deskcolor="#d1d1d1"
     inkscape:document-units="mm"
     inkscape:zoom="12.08771"
     inkscape:cx="20.061699"
     inkscape:cy="14.725701"
     inkscape:window-width="1431"
     inkscape:window-height="1000"
     inkscape:window-x="2393"
     inkscape:window-y="0"
     inkscape:window-maximized="0"
     inkscape:current-layer="layer1" /><defs
     id="defs1" /><g
     inkscape:label="Layer 1"
     inkscape:groupmode="layer"
     id="layer1"
     transform="translate(-144.65685,-158.83439)"><path
       style="fill:#f9f9f9;fill-opacity:1;stroke-width:0.999999"
       d="m 149.24443,159.71248 c 0.39771,0.39777 0.78476,0.79465 0.87838,0.90044 -0.15139,0.16271 -0.91236,0.93485 -1.8244,1.84647 l -1.84096,1.84096 h -0.8977 c -0.40464,0 -0.75521,-0.006 -0.8825,-0.0124 -0.003,0 -0.006,0 -0.008,0 0,-0.003 0,-0.006 0,-0.008 -0.007,-0.12728 -0.0124,-0.47783 -0.0124,-0.8825 l 1e-5,-0.89769 1.84096,-1.84096 c 0.91164,-0.91198 1.68335,-1.67345 1.84647,-1.8244 0.10607,0.0933 0.50277,0.48057 0.90044,0.87837 z m -0.90045,-0.15744 -1.46117,1.46117 -1.45979,1.45979 0.52753,0.53036 0.52895,0.52895 1.46117,-1.46117 1.46117,-1.46117 -0.52895,-0.52895 z m -2.46107,4.1211 c -0.004,-0.002 -0.008,0.003 -0.01,0.001 -0.0269,-0.0312 -0.15116,-0.15823 -0.301,-0.30666 l -0.39085,-0.39085 v 0.43643 0.35907 h 0.35356 c 0.14965,0 0.27164,-5.1e-4 0.30659,-0.006 0.004,-7.1e-4 0.0483,0.007 0.0483,-0.054 0,-0.0286 -0.003,-0.0377 -0.007,-0.04 z"
       id="path3" /></g></svg>
